<svg width="800" height="800" viewBox="0 0 70.867 70.867" xmlns="http://www.w3.org/2000/svg"><g fill="#FFF" stroke="#00A0E9" stroke-linejoin="round" stroke-miterlimit="10" stroke-width="3"><path d="M37.564 26.641c-1.063 3.75-2.063 7.914-2.752 12.094a93.607 93.607 0 00-.71 5.127 77.741 77.741 0 00-.354 4.904c-.122 3.148.011 5.99.28 8.307l.219 1.641.266 1.434c.155.896.381 1.623.511 2.238l.555 1.842c.072.242.133.506.19.768H22.926c-.025-.965-.103-2.119-.073-3.418l.045-2.145.153-2.336c.267-3.227.836-6.855 1.72-10.518.438-1.832.963-3.67 1.528-5.5a97.393 97.393 0 011.896-5.381 104.807 104.807 0 014.229-9.492 25.7 25.7 0 015.14.435z"/><path d="M9.067 20.199c6.141-3.863 13.178-5.699 20.269-5.473-.205-3.93-.629-7.867-1.273-11.793 4.768 3.365 8.492 7.428 11.115 11.715 7.623.711 15.678 3.803 22.62 9.787-5.786-2.143-11.504-2.723-16.62-2.119 4.4 4.639 7.332 10.295 8.563 16.326-3.689-6.805-16.093-12.293-16.176-12.002a25.86 25.86 0 00-5.141-.436c-4.721.076-9.073 1.469-12.515 3.77 1.972-3.553 5.115-6.834 9.245-9.281-5.843-2.173-12.838-2.691-20.087-.494zm6.713 47.735c1.132-4.166 6.758-7.334 13.545-7.334s12.413 3.168 13.545 7.334H15.78z"/></g></svg>