<svg xmlns="http://www.w3.org/2000/svg" viewBox="0 0 122.88 67.41"><path d="M79.93 51.37c-.53-.51-.32-1.2.48-1.54.8-.34 1.87-.2 2.41.3 3.78 3.6 1.96 6.52.21 9.32-1.32 2.12-2.59 4.15-.25 6.19.57.5.4 1.19-.37 1.55-.77.36-1.86.26-2.43-.24-3.47-3.03-1.86-5.62-.17-8.32 1.41-2.27 2.89-4.63.12-7.26zM14.57 28.11h73.65c.96 0 1.74.78 1.74 1.74v12.26h24.13a5.3 5.3 0 003.75-1.56 5.3 5.3 0 001.56-3.75v-28a5.3 5.3 0 00-1.56-3.75 5.3 5.3 0 00-3.75-1.56H8.8a5.3 5.3 0 00-3.75 1.56c-.97.96-1.57 2.29-1.57 3.75v28c0 1.46.6 2.79 1.56 3.75a5.3 5.3 0 003.75 1.56h4.03V29.85c.01-.96.79-1.74 1.75-1.74zm71.91 3.48H16.31v10.09h70.17V31.59zM15.21 13.64a1.741 1.741 0 010-3.48h93.74a1.741 1.741 0 010 3.48H15.21zm83.37 18.35c1.36 0 2.46 1.1 2.46 2.46s-1.1 2.46-2.46 2.46-2.46-1.1-2.46-2.46 1.11-2.46 2.46-2.46zm10.27 0c1.36 0 2.46 1.1 2.46 2.46s-1.1 2.46-2.46 2.46c-1.36 0-2.46-1.1-2.46-2.46s1.1-2.46 2.46-2.46zM8.8 0h105.29c2.42 0 4.62.99 6.21 2.58a8.769 8.769 0 012.58 6.21V36.8c0 2.42-.99 4.62-2.58 6.21a8.769 8.769 0 01-6.21 2.58H8.8c-2.42 0-4.62-.99-6.21-2.58A8.736 8.736 0 010 36.8v-28c0-2.42.99-4.62 2.58-6.21C4.18.99 6.38 0 8.8 0zm6.41 21.76a1.741 1.741 0 010-3.48h93.74a1.741 1.741 0 010 3.48H15.21zm6.16 29.61c-.53-.51-.32-1.2.48-1.54.8-.34 1.87-.2 2.41.3 3.78 3.6 1.96 6.52.21 9.32-1.32 2.12-2.59 4.15-.25 6.19.57.5.4 1.19-.37 1.55-.77.36-1.86.26-2.43-.24-3.47-3.03-1.86-5.62-.17-8.32 1.41-2.27 2.88-4.63.12-7.26zm14.64 0c-.53-.51-.32-1.2.48-1.54.8-.34 1.87-.2 2.41.3 3.78 3.6 1.96 6.52.21 9.32-1.32 2.12-2.59 4.15-.25 6.19.57.5.4 1.19-.37 1.55-.77.36-1.86.26-2.43-.24-3.47-3.03-1.86-5.62-.17-8.32 1.41-2.27 2.88-4.63.12-7.26zm14.64 0c-.53-.51-.32-1.2.48-1.54.8-.34 1.87-.2 2.41.3 3.78 3.6 1.96 6.52.21 9.32-1.32 2.12-2.59 4.15-.25 6.19.57.5.4 1.19-.37 1.55-.77.36-1.86.26-2.43-.24-3.47-3.03-1.86-5.62-.17-8.32 1.41-2.27 2.89-4.63.12-7.26zm14.64 0c-.53-.51-.32-1.2.48-1.54.8-.34 1.87-.2 2.41.3 3.78 3.6 1.96 6.52.21 9.32-1.32 2.12-2.59 4.15-.25 6.19.57.5.4 1.19-.37 1.55-.77.36-1.86.26-2.43-.24-3.47-3.03-1.85-5.62-.17-8.32 1.41-2.27 2.89-4.63.12-7.26z"/></svg>