<svg xmlns="http://www.w3.org/2000/svg" viewBox="0 0 122.88 107.65"><path d="M26.21 28.03h7.77v-9.36c0-1.4 1.14-2.54 2.54-2.54s2.54 1.14 2.54 2.54v7.65c2.5-1.17 5.09-2.12 7.76-2.85v-9.56c0-1.41 1.14-2.54 2.54-2.54 1.41 0 2.54 1.14 2.54 2.54v8.47c2.23-.35 4.52-.55 6.88-.59h.08V8.86c0-1.4 1.14-2.54 2.54-2.54 1.4 0 2.54 1.14 2.54 2.54v13.09c2.26.18 4.58.5 6.96.97v-9.01c0-1.41 1.14-2.54 2.54-2.54 1.41 0 2.54 1.14 2.54 2.54v10.23c2.52.7 5.11 1.57 7.76 2.6v-8.07c0-1.4 1.14-2.54 2.54-2.54 1.4 0 2.54 1.14 2.54 2.54v9.36h7.82v-6.91h-2.31c-1.34 0-2.43-1.09-2.43-2.43v-1.21c0-1.34 1.09-2.43 2.43-2.43H98c-.69-1.39-1.07-2.96-1.07-4.61C96.95 4.67 101.63 0 107.39 0c5.77 0 10.44 4.67 10.44 10.44 0 1.66-.39 3.22-1.07 4.61h3.7c1.34 0 2.43 1.09 2.43 2.43v1.21c0 1.34-1.09 2.43-2.43 2.43h-2.31v86.53H96.67v-7.44H86.48c-.06 0-.11.01-.17.01-.06 0-.12 0-.17-.01H73.72c-.08.01-.17.01-.25.01-.08 0-.17 0-.25-.01H61.65c-.08.01-.16.01-.24.01-.08 0-.16 0-.24-.01H49.62c-.08.01-.17.01-.25.01-.08 0-.17 0-.25-.01H36.69c-.06 0-.11.01-.17.01-.06 0-.12 0-.17-.01H26.21v7.44H4.74V21.12H2.43C1.09 21.12 0 20.03 0 18.69v-1.21c0-1.34 1.09-2.43 2.43-2.43H6.1c-.69-1.39-1.07-2.96-1.07-4.61C5.02 4.67 9.7 0 15.46 0S25.9 4.67 25.9 10.44c0 1.66-.39 3.22-1.07 4.61h3.7c1.34 0 2.43 1.09 2.43 2.43v1.21c0 1.34-1.09 2.43-2.43 2.43h-2.31v6.91h-.01zm25.7 24.04h6.96V37.65c-2.39.04-4.71.27-6.96.66v13.76zm12.05 0h6.96V38.9c-2.39-.52-4.71-.87-6.96-1.07v14.24zm6.96 16.12h-6.96v26.95h6.96V68.19zm-12.05 0h-6.96v26.95h6.96V68.19zm1.34-7.37l-1.59 4.15h5.58l-1.47-4.21a2.89 2.89 0 001.58-2.57c0-1.59-1.3-2.89-2.89-2.89s-2.89 1.3-2.89 2.89c0 1.16.68 2.17 1.68 2.63zM96.67 33.1h-7.82v5.75h7.82V33.1zm0 10.81h-7.82v51.23h7.82V43.91zM26.21 95.14h7.77V43.91h-7.77v51.23zm0-56.29h7.77V33.1h-7.77v5.75zm49.8-9.45v5.56c2.52.7 5.11 1.57 7.76 2.6v-5.37a78.71 78.71 0 00-7.76-2.79zm0 10.82v54.93h7.76V43.01a78.71 78.71 0 00-7.76-2.79zm-5.09-6.48v-5.66c-2.39-.52-4.71-.87-6.96-1.07v5.75c2.26.19 4.58.51 6.96.98zm-12.05-6.91c-2.39.04-4.71.27-6.96.66v5.7c2.23-.35 4.52-.55 6.88-.59h.08v-5.77zm-12.05 1.89c-2.69.83-5.27 1.91-7.76 3.23v5.19c2.5-1.17 5.09-2.12 7.76-2.85v-5.57zm0 10.82c-2.69.83-5.27 1.91-7.76 3.23v52.37h7.76v-55.6z"/></svg>