<svg data-name="Layer 1" xmlns="http://www.w3.org/2000/svg" viewBox="0 0 114.84 122.88"><path d="M25.64 44.74c-4 1.51-6.34 5.84-7.84 10.53L13 70.07l-2.31-4.33C.42 65.13-.76 71 9.51 76.16-1.92 83.56-.35 96.51.78 110.88a4.73 4.73 0 000 .54v8a3.48 3.48 0 003.47 3.47H19a3.48 3.48 0 003.47-3.47v-2.78H92.4v2.78a3.48 3.48 0 003.47 3.47h14.79a3.48 3.48 0 003.47-3.47v-6.15c1.15-18.73 1.87-26.27-5.54-33.88l-1.82-2.79c11.23-5.32 10.23-11.48-.33-10.86l-2 3.87-3.57-14.35c-1.48-5.91-5-11.09-11.1-11.09h-.07c-.67 2-1.44 3.91-2.31 5.83 4.5.14 7.23 4 8.2 8.45l3.58 14.88H18l4.47-14.88a20 20 0 011.92-4.36A6.32 6.32 0 0126 52a7 7 0 012.18-1.46c-.35-.69-.69-1.37-1-2.07a53.81 53.81 0 01-1.56-3.7zM70 59.91A50 50 0 0159.1 69a1.55 1.55 0 01-1.76.06 62 62 0 01-15.22-13.62 48.49 48.49 0 01-10.23-22.1c-1.22-7.53-.08-14.78 3.67-20.67a25.46 25.46 0 015.67-6.28A27.6 27.6 0 0158.57 0 24.45 24.45 0 0175 6.72a24.65 24.65 0 014.39 5.35c4 6.64 4.9 15.11 3.13 23.68A52.16 52.16 0 0170 59.89zM67.83 24a7.74 7.74 0 01-1 3.85A7.05 7.05 0 0164 30.63a9.91 9.91 0 01-4.64 1H56v6.17h-6.52V16.34h9.83a8.81 8.81 0 016.32 2.09 7.35 7.35 0 012.2 5.57zM59 26.58A2.25 2.25 0 0061.19 24 2.26 2.26 0 0059 21.49h-3v5.09zm-1.58-19.7c10.29 0 18.64 9 18.64 20.19s-8.35 20.19-18.64 20.19-18.64-9-18.64-20.19S47.13 6.88 57.42 6.88zm-29 86.32l-13.17-1.66c-3.1-.34-3.93 1-2.88 3.64l1.43 3.45a5 5 0 001.77 2 6.08 6.08 0 002.94.81l11.73.09c2.83 0 4.05-1.14 3.16-3.73a6.32 6.32 0 00-5-4.58zm58.06 0l13.14-1.66c3.11-.34 3.94 1 2.88 3.64l-1.42 3.45a5.05 5.05 0 01-1.77 2 6.15 6.15 0 01-3 .81l-11.72.09c-2.83 0-4-1.14-3.17-3.73a6.34 6.34 0 015-4.58z" fill-rule="evenodd"/></svg>