<svg data-name="Layer 1" xmlns="http://www.w3.org/2000/svg" viewBox="0 0 566.93 135.35"><path d="M27.63 121.5h-4.91L0 72.38h6.56l18.72 41.82 18.5-41.82H50L27.63 121.5zm33.28-54.59h-5.6v-6.52h5.6v6.52zm0 54.59h-5.6V72.38h5.6v49.12zm92.44-54.68h-5.6V60.3h5.6v6.52zm0 54.58h-5.6V72.29h5.6v49.11zm141 0h-5.61V60.3h5.61v61.1zm130-54.58h-5.59V60.3h5.59v6.52zm0 54.58h-5.59V72.29h5.59v49.11zm-150.88 0h-5.58V60.3h5.58v12h9.62v5.22h-9.62v43.88zm130 0h-5.58V60.3h5.58v12h9.6v5.24h-9.6v43.86zm-165 1c-9.1 0-18.33-5.33-18.33-15.48v-.19c0-10.65 7.4-16.06 21.93-16.06h13.72v-.14c0-8.93-5.07-13.48-15.05-13.48a32.54 32.54 0 00-14.61 3.67l-.47.23-2.06-4.65.43-.2a38.54 38.54 0 0117.33-4.33c6.61 0 11.66 1.7 15 5s4.85 7.74 4.85 13.66v30.9h-5.43v-6.51c-2.23 2.73-7.92 7.55-17.32 7.55zm-12.6-15.75c0 6.15 5.48 10.64 13 10.64 8.45 0 17-4.82 17-15.59v-5.87h-13.16c-11.91 0-16.77 3.14-16.77 10.86zm93.52 15.75c-9.09 0-18.31-5.33-18.31-15.48v-.19c0-10.65 7.37-16.06 21.92-16.06h13.8v-.14c0-8.93-5.08-13.48-15.07-13.48a32.43 32.43 0 00-14.59 3.67l-.48.23-2.05-4.65.41-.2a38.71 38.71 0 0117.34-4.33c6.61 0 11.66 1.7 15 5s4.83 7.74 4.83 13.66v30.9h-5.4v-6.51c-2.21 2.73-7.91 7.55-17.34 7.55zm-12.6-15.75c0 6.15 5.49 10.64 13 10.64 8.45 0 17-4.82 17-15.59v-5.87h-13.15c-11.9 0-16.78 3.14-16.78 10.86zM202.25 121.4h-5.6V95.46c0-5.62 0-18.77-14.41-18.77-10.26 0-16.39 7.78-16.39 20.79v23.92h-5.58V72.29h5.58v8.18a19.72 19.72 0 0117-9c12.49 0 19.36 7.57 19.36 21.3v28.63zm189 0h-5.65V95.46c0-5.62 0-18.77-14.42-18.77-10.24 0-16.35 7.78-16.35 20.79v23.92h-5.59V72.29h5.59v8.18a19.69 19.69 0 0117-9c12.48 0 19.37 7.57 19.37 21.3v28.63zm-273.7 13.95a34.78 34.78 0 01-21.7-7.42l-.35-.3 3.18-4.5.4.29c4.87 3.44 10.45 6.62 18.57 6.62 11.41 0 17.69-6.83 17.69-19.26v-2.48c-3.24 5-10.3 9.64-18.88 9.64a23.37 23.37 0 01-15.75-6.24 22.64 22.64 0 01-7.13-16.76v-.2a22.79 22.79 0 017.13-16.85 23.09 23.09 0 0115.75-6.34c8.68 0 15.71 4.39 18.88 9.2v-8.37h5.49v38.31c0 8.27-1.84 13.88-6 18.14s-10.24 6.52-17.27 6.52zM116.91 77c-10.12 0-17.48 7.4-17.48 17.6v.17A17.49 17.49 0 00117 112.56c8.82 0 18.36-6.77 18.36-17.71v-.19C135.31 83.59 126 77 116.91 77zm338.39 45c-13.79 0-24.61-11.07-24.61-25.18v-.18c0-14.24 10.82-25.39 24.61-25.39a25.44 25.44 0 0119.43 8.63l.29.35-3.53 3.77-.35-.39c-4.88-4.78-10.09-7.12-15.92-7.12-10.42 0-18.59 8.74-18.59 19.91v.19c0 11.26 8.32 20.07 19 20.07a21.15 21.15 0 0015.59-7.25l.33-.39 3.68 3.35-.25.35c-2.19 3.19-9.11 9.23-19.64 9.23zm-381.84-.5h-5.6V72.38h5.6v11.7c4.37-8 12-12.5 20.72-12.14h.49v5.83h-1c-10.06 0-20.23 7.22-20.23 23.41v20.3z" fill="#5b056a"/><path d="M566.93 0h-48C504 0 500.41 2.44 494.48 8.94l-43 47.11c34.3-1.64 44.88 32.89 79.73 23.43z" fill="#eb143a"/><path d="M504 18.48s2.14-3.94 3.83-5.23a4.07 4.07 0 001.89-3 2.35 2.35 0 00-.85-2s-2.6-2.11-4.71 1.5c0 0-10 18.83-13.4 37.83 0 0-.26.61-.33-1.11 0 0-1.46-15.94-1.52-16.52s0-2-1.35-2.12c0 0-1.56-.29-2.49 2.08l-4.42 10.88s-.73 1.36.45 1.87c0 0 1.31.75 2.17-1.09l2-4.37c.4-.9.7-.77.7-.77.24.05.34 1 .34 1s1.86 21.37 1.88 21.57.18 1.89 1.62 1.89c1 0 1.37-1.18 1.58-2.14s2.15-11.16 5.39-22.14c2.12-7.21 4.85-14.4 7.22-18.13zm-2.94 18.66a3.31 3.31 0 00-2.32 2.79l-1.26 9.33c-.2 1.85 2.2.51 2.2.51a2.73 2.73 0 001.19-1.77l.38-2.34 1.16-6.31c.38-2.66-1.32-2.21-1.32-2.21zm4.1.82s-.67 4.86-.78 5.93c0 0-.9 4.1 1.3 3.36a3.24 3.24 0 002.05-3l.36-3.49A4.79 4.79 0 01510.3 37s2.2-1 1.54-2.36c0 0-.42-1.09-1.73-.5a6 6 0 01-1.54.5l-1.52.19s-1.63.11-1.86 3.17zm-1.7-5.56c1.35-1.08.95-2 .95-2-.5-1.45-2.34.09-2.34.09-1.55 1.1-1 2.19-1 2.19.7 1.19 2.42-.28 2.42-.28zM526 39.18a2.83 2.83 0 002.06-2.37s1.05-7.43 1.09-7.68.5-2.21-.88-1.91a2.58 2.58 0 00-2 2L525 36.54l-.28 1.46s-.34 1.6 1.28 1.18zm4.2-15.56s1.47-1.22.8-2.11c0 0-.63-.93-2.37.31 0 0-1.56 1.28-.6 2.17-.03.01.9.85 2.16-.37zm18.38 9.08c-.34-.61-1.24-1-2.83-.33s-2.39 1.07-2.45 1.08-2.07 1.07-1.86-1.67l.64-6.47s.25-2.35-1.59-2.35c0 0-1-.1-2.55 1.27a4.4 4.4 0 01-1.36.88 2.2 2.2 0 01-1.3-.07 2.38 2.38 0 00-1.5 0 2.92 2.92 0 00-1.89 2.87l-.7 5.74a10.24 10.24 0 00-.19 2.66s.19.9 1.81.36c0 0 1.38-.42 1.54-2.77 0 0 .39-4.59 1-5.48a5.89 5.89 0 011.9-2.09s1.58-.76 1.56.53l-.57 5.27s-.56 2.58.61 3c0 0 .13 0-.17.21 0 0-7.57 3.22-17.33 8.66.67-5.53 1.81-13.23 1.81-13.23.17-1.25-1.36-1.25-1.36-1.25-1.5 0-1.71 1.7-1.84 2.48s-1.25 7-1.25 7c-.51 2.83-2.2 2.69-2.2 2.69-1.66.19-.66-4.29-.66-4.29.44-1.61.59-3 1.86-4.05s1.36-2.41.42-2.45c-1.56-.08-3.15 1.6-3.15 1.6-2.77 2.73-2.76 9.35-2.76 9.35a2.76 2.76 0 001.36 2.73c1.76.8 4.18-.61 4.18-.61.57-.39.49.16.49.16l-.12 1.68a153.61 153.61 0 00-22 15.11s-3.15 2.31-2 3.85 3 .14 3.69-.52c0 0 7-7.21 20-15.28l-.41 5.42c-.18 2.45-1 10-1 10-.36 3 .12 3.56.28 3.77a2.08 2.08 0 002.73.48c1.61-1 .81-3.5.55-4.67a16.14 16.14 0 01-.23-3.09c.11-1.56 1-12.09 1-12.09 0-.41.07-1 .14-1.7a143.46 143.46 0 0117.08-8.62s2.76-1.09 5.11-1.83c0 0 .78-.31 1.77-.61 1.33-.38 3-1 3.55-1.71a1.48 1.48 0 00.18-1.62z" fill="#fff"/></svg>